PathFileType	4	(X/Y/Z)	/Users/itak/Documents/Research/Walk-IL/dataset/trc/00165_00008.trc
DataRate	CameraRate	NumFrames	NumMarkers	Units	OrigDataRate	OrigDataStartFrame	OrigNumFrames
100.000000	100.000000	4	53	mm	100.000000	0	515
Frame#	Time	RPSI			LPSI			L3			STRN			T10			C7			CLAV			RBAK			LBAK			LSHO			LUPA			LAEL			LAOL			LWTS			LWPS			LFRA			LIFD			LHPS			LHTS			RSHO			RUPA			RAEL			RAOL			RWTS			RWPS			RFRA			RIFD			RHTS			RHPS			RBHD			LFHD			RFHD			LBHD			LHIP			RHIP			RASI			LASI			LKNE			LTHI			LANK			LTIP			LTOE			LMT1			LMT5			LHEE			RKNE			RTHI			RANK			RTIP			RTOE			RMT1			RMT5			RHEE			
		X1	Y1	Z1	X2	Y2	Z2	X3	Y3	Z3	X4	Y4	Z4	X5	Y5	Z5	X6	Y6	Z6	X7	Y7	Z7	X8	Y8	Z8	X9	Y9	Z9	X10	Y10	Z10	X11	Y11	Z11	X12	Y12	Z12	X13	Y13	Z13	X14	Y14	Z14	X15	Y15	Z15	X16	Y16	Z16	X17	Y17	Z17	X18	Y18	Z18	X19	Y19	Z19	X20	Y20	Z20	X21	Y21	Z21	X22	Y22	Z22	X23	Y23	Z23	X24	Y24	Z24	X25	Y25	Z25	X26	Y26	Z26	X27	Y27	Z27	X28	Y28	Z28	X29	Y29	Z29	X30	Y30	Z30	X31	Y31	Z31	X32	Y32	Z32	X33	Y33	Z33	X34	Y34	Z34	X35	Y35	Z35	X36	Y36	Z36	X37	Y37	Z37	X38	Y38	Z38	X39	Y39	Z39	X40	Y40	Z40	X41	Y41	Z41	X42	Y42	Z42	X43	Y43	Z43	X44	Y44	Z44	X45	Y45	Z45	X46	Y46	Z46	X47	Y47	Z47	X48	Y48	Z48	X49	Y49	Z49	X50	Y50	Z50	X51	Y51	Z51	X52	Y52	Z52	X53	Y53	Z53	

1	0	-1975.869506835938	1050.274291992188	7.557921886444092	-1963.676879882812	1047.791015625	-115.4477996826172	-1970.008422851562	1087.96240234375	-52.70514678955078	-1707.948120117188	1296.589233398438	-44.35100936889648	-2001.088256835938	1245.125854492188	-64.64711761474609	-1936.636352539062	1514.778076171875	-75.76192474365234	-1736.031982421875	1410.498901367188	-57.59603500366211	-2009.382080078125	1341.283447265625	31.37738418579102	-1936.205322265625	1486.788330078125	-177.4280548095703	-1853.90869140625	1471.920288085938	-250.2786407470703	-1874.220092773438	1336.96337890625	-323.0155944824219	-1841.33349609375	1116.455688476562	-331.3719787597656	-1905.445678710938	1103.5283203125	-270.6385192871094	-1732.750854492188	892.8707275390625	-257.7974853515625	-1799.386840820312	865.3635864257812	-318.4478454589844	-1819.036743164062	1006.122192382812	-335.2266845703125	-1716.506591796875	709.838623046875	-222.2605590820312	-1776.381591796875	797.2977905273438	-304.5866088867188	-1715.215698242188	813.6578979492188	-269.5808410644531	-1884.402099609375	1496.661376953125	109.107551574707	-1906.401245117188	1430.435791015625	178.8879089355469	-1910.284790039062	1141.469848632812	238.542724609375	-1919.783081054688	1133.69140625	141.1713104248047	-1763.327514648438	917.7786254882812	207.4295043945312	-1832.282592773438	900.0737915039062	262.2113342285156	-1880.727783203125	1069.9345703125	255.2937774658203	-1745.848388671875	730.489990234375	185.51318359375	-1733.049560546875	825.0553588867188	214.7138214111328	-1800.589233398438	816.9308471679688	257.3937377929688	-1900.213745117188	1673.24072265625	-5.347726821899414	-1726.970336914062	1732.311157226562	-123.8149490356445	-1736.21923828125	1734.673828125	4.989403247833252	-1896.874755859375	1677.965942382812	-143.3752746582031	-1849.226440429688	984.5990600585938	-224.1324615478516	-1844.252563476562	1007.867492675781	133.1707153320312	-1743.860473632812	1043.26611328125	94.49052429199219	-1730.59326171875	1023.92724609375	-163.5100250244141	-1851.3515625	492.8427734375	-190.3394165039062	-1834.730590820312	634.6558227539062	-215.9407196044922	-1972.514892578125	43.35129547119141	-204.6214752197266	-1909.17236328125	274.6431579589844	-210.6076965332031	-1752.274047851562	38.81197738647461	-199.1732788085938	-1798.7978515625	38.787353515625	-146.5892944335938	-1869.534423828125	32.69969177246094	-254.1702575683594	-2017.368896484375	41.76692962646484	-130.4036712646484	-1826.505249023438	515.4446411132812	140.3301239013672	-1787.4921875	793.1290893554688	166.2647705078125	-1933.014892578125	38.55484390258789	155.4728851318359	-1820.849731445312	395.8748168945312	127.5555038452148	-1707.2666015625	38.30764389038086	130.3499908447266	-1762.77099609375	37.46857452392578	83.01837158203125	-1821.3525390625	34.53774642944336	195.5399322509766	-1980.811401367188	36.87773895263672	85.80845642089844	
2	0.01	-1975.892456054688	1050.288818359375	7.524439811706543	-1963.680786132812	1047.798950195312	-115.4729385375977	-1970.023193359375	1087.963134765625	-52.7344856262207	-1708.03564453125	1296.602661132812	-44.40413665771484	-2001.089721679688	1245.149047851562	-64.6805419921875	-1936.61962890625	1514.776733398438	-75.81085205078125	-1736.025390625	1410.498779296875	-57.62504959106445	-2009.3818359375	1341.301025390625	31.35349082946777	-1936.194091796875	1486.786987304688	-177.4727325439453	-1853.880004882812	1471.897338867188	-250.3224182128906	-1874.18115234375	1336.931518554688	-323.0372009277344	-1841.249755859375	1116.43017578125	-331.3692626953125	-1905.365478515625	1103.4912109375	-270.6084594726562	-1732.629150390625	892.9002075195312	-257.7330627441406	-1799.2001953125	865.3499145507812	-318.3614501953125	-1818.920288085938	1006.096008300781	-335.1996459960938	-1716.236938476562	709.89697265625	-222.0799865722656	-1776.161499023438	797.2840576171875	-304.4707946777344	-1714.989501953125	813.7454223632812	-269.4747314453125	-1884.385986328125	1496.685546875	109.0653381347656	-1906.39892578125	1430.489990234375	178.8530426025391	-1910.242553710938	1141.548828125	238.6240081787109	-1919.73486328125	1133.692993164062	141.1749877929688	-1763.259887695312	917.87744140625	207.6051330566406	-1832.195678710938	900.1668701171875	262.3923645019531	-1880.664794921875	1070.019775390625	255.3881378173828	-1745.552734375	730.5878295898438	185.8048248291016	-1733.000122070312	825.127197265625	214.8530120849609	-1800.5078125	817.05419921875	257.5913696289062	-1900.165161132812	1673.265747070312	-5.432321548461914	-1726.9189453125	1732.292602539062	-123.8840484619141	-1736.141723632812	1734.653686523438	4.91714334487915	-1896.834350585938	1677.971557617188	-143.4405364990234	-1849.226806640625	984.6033935546875	-224.1614379882812	-1842.267211914062	1008.973571777344	134.6536102294922	-1743.8779296875	1043.270263671875	94.48345947265625	-1730.599243164062	1023.930358886719	-163.5142974853516	-1851.347412109375	492.8406677246094	-190.3527984619141	-1834.739013671875	634.6633911132812	-215.9553375244141	-1972.518188476562	43.35712432861328	-204.6251678466797	-1909.1787109375	274.6478881835938	-210.6166229248047	-1752.276611328125	38.81476593017578	-199.1677551269531	-1798.798950195312	38.79429626464844	-146.5908508300781	-1869.532958984375	32.6973991394043	-254.1721649169922	-2017.377319335938	41.77590179443359	-130.4105072021484	-1826.485717773438	515.4366455078125	140.3122253417969	-1787.402709960938	793.0130004882812	166.3885040283203	-1933.016845703125	38.56194305419922	155.4686737060547	-1820.807250976562	395.8492126464844	127.5262756347656	-1707.264770507812	38.31188201904297	130.3460388183594	-1762.77001953125	37.46687698364258	83.02050018310547	-1821.352783203125	34.53730392456055	195.5392761230469	-1980.811401367188	36.87777709960938	85.80850982666016	
3	0.02	-1975.923583984375	1050.306640625	7.480609893798828	-1963.687744140625	1047.806884765625	-115.5019302368164	-1970.042236328125	1087.963256835938	-52.77016830444336	-1708.129638671875	1296.612060546875	-44.45898056030273	-2001.095947265625	1245.173828125	-64.72190856933594	-1936.603515625	1514.77197265625	-75.87183380126953	-1736.022827148438	1410.497436523438	-57.66095733642578	-2009.385620117188	1341.32177734375	31.32123947143555	-1936.182495117188	1486.78369140625	-177.5272827148438	-1853.84716796875	1471.867797851562	-250.3751525878906	-1874.135375976562	1336.890747070312	-323.0646667480469	-1841.145629882812	1116.399536132812	-331.3709716796875	-1905.2607421875	1103.439208984375	-270.5890808105469	-1732.468017578125	892.9376220703125	-257.66357421875	-1798.969848632812	865.3324584960938	-318.2707214355469	-1818.78125	1006.065490722656	-335.1778564453125	-1715.908325195312	709.960693359375	-221.8781585693359	-1775.896484375	797.2708129882812	-304.3480224609375	-1714.711547851562	813.8464965820312	-269.3596801757812	-1884.373413085938	1496.714599609375	109.01318359375	-1906.401000976562	1430.552368164062	178.81103515625	-1910.196411132812	1141.64208984375	238.7192993164062	-1919.677124023438	1133.692138671875	141.1852569580078	-1763.174072265625	917.9969482421875	207.8197326660156	-1832.09912109375	900.27978515625	262.6235046386719	-1880.588256835938	1070.11767578125	255.5026245117188	-1745.239624023438	730.6871337890625	186.1582946777344	-1732.934326171875	825.2191162109375	215.0336303710938	-1800.426391601562	817.2037353515625	257.8228454589844	-1900.108520507812	1673.298461914062	-5.536772727966309	-1726.859130859375	1732.265747070312	-123.9807662963867	-1736.045776367188	1734.627319335938	4.818985462188721	-1896.789184570312	1677.976318359375	-143.5211029052734	-1849.228759765625	984.6080932617188	-224.1959838867188	-1839.84765625	1010.33349609375	136.4710693359375	-1743.911010742188	1043.280639648438	94.46941375732422	-1730.60498046875	1023.933715820312	-163.521728515625	-1851.344360351562	492.8379516601562	-190.3695220947266	-1834.7509765625	634.6707763671875	-215.9744567871094	-1972.522094726562	43.36360168457031	-204.62939453125	-1909.185668945312	274.6519775390625	-210.6254272460938	-1752.27978515625	38.81758880615234	-199.1636810302734	-1798.799438476562	38.80093765258789	-146.5922088623047	-1869.53271484375	32.69425201416016	-254.1756439208984	-2017.3857421875	41.78435516357422	-130.4173736572266	-1826.460815429688	515.4268798828125	140.2899475097656	-1787.301513671875	792.8763427734375	166.5286865234375	-1933.01904296875	38.57043075561523	155.4633026123047	-1820.75927734375	395.8204650878906	127.4900436401367	-1707.26318359375	38.31555557250977	130.3420715332031	-1762.76904296875	37.46462631225586	83.02044677734375	-1821.3525390625	34.53701400756836	195.5385284423828	-1980.8115234375	36.87777709960938	85.80855560302734	
4	0.03	-1975.962646484375	1050.326293945312	7.428711891174316	-1963.698608398438	1047.813720703125	-115.5323867797852	-1970.065185546875	1087.962280273438	-52.81005096435547	-1708.220581054688	1296.615478515625	-44.50851821899414	-2001.108642578125	1245.197265625	-64.7691650390625	-1936.590942382812	1514.7626953125	-75.94184112548828	-1736.027709960938	1410.494262695312	-57.70206451416016	-2009.395263671875	1341.343872070312	31.28110122680664	-1936.17236328125	1486.777465820312	-177.5887603759766	-1853.8134765625	1471.832885742188	-250.4336395263672	-1874.086669921875	1336.842651367188	-323.0971069335938	-1841.026733398438	1116.365844726562	-331.3798522949219	-1905.132934570312	1103.371704101562	-270.5929870605469	-1732.273803710938	892.9801635742188	-257.5984802246094	-1798.706909179688	865.3119506835938	-318.1882019042969	-1818.628295898438	1006.033081054688	-335.1679382324219	-1715.541259765625	710.0232543945312	-221.6792297363281	-1775.603271484375	797.260498046875	-304.2355346679688	-1714.395629882812	813.9505004882812	-269.2490234375	-1884.367919921875	1496.746826171875	108.9535827636719	-1906.409790039062	1430.618041992188	178.7642211914062	-1910.15185546875	1141.742797851562	238.8211517333984	-1919.614990234375	1133.689331054688	141.2044219970703	-1763.074951171875	918.1294555664062	208.06103515625	-1832.003540039062	900.406005859375	262.8955688476562	-1880.501098632812	1070.219360351562	255.6308288574219	-1744.9443359375	730.775634765625	186.5530548095703	-1732.855590820312	825.3276977539062	215.2530670166016	-1800.354125976562	817.369384765625	258.0711364746094	-1900.048217773438	1673.338256835938	-5.655881881713867	-1726.795043945312	1732.230224609375	-124.1058197021484	-1735.935791015625	1734.595336914062	4.6954665184021	-1896.74365234375	1677.97900390625	-143.6130676269531	-1849.234130859375	984.6127319335938	-224.2345428466797	-1837.277465820312	1011.796691894531	138.4152984619141	-1743.960815429688	1043.297729492188	94.44704437255859	-1730.609619140625	1023.937194824219	-163.5332336425781	-1851.343505859375	492.8348388671875	-190.3891754150391	-1834.766479492188	634.6768188476562	-215.9981231689453	-1972.526245117188	43.37028121948242	-204.6339416503906	-1909.19287109375	274.6541137695312	-210.6333465576172	-1752.283447265625	38.82050323486328	-199.16162109375	-1798.799194335938	38.80597305297852	-146.5929870605469	-1869.533569335938	32.69083023071289	-254.1810913085938	-2017.393310546875	41.79092407226562	-130.4236907958984	-1826.432861328125	515.4164428710938	140.2645721435547	-1787.200805664062	792.7305297851562	166.6693725585938	-1933.021484375	38.57966613769531	155.4570770263672	-1820.7099609375	395.791259765625	127.4488143920898	-1707.26025390625	38.31841659545898	130.3379058837891	-1762.76806640625	37.46184539794922	83.01775360107422	-1821.351806640625	34.53699111938477	195.5377349853516	-1980.8115234375	36.87770080566406	85.80857086181641	
